Coordinates
version=1
nRows=18
nColumns=63
inDegrees=yes

Units are S.I. units (second, meters, Newtons, ...)
If the header above contains a line with 'inDegrees', this indicates whether rotational values are in degrees (yes) or radians (no).

endheader
time	pelvis_tilt	pelvis_list	pelvis_rotation	pelvis_tx	pelvis_ty	pelvis_tz	hip_flexion_r	hip_adduction_r	hip_rotation_r	knee_angle_r	knee_angle_r_beta	ankle_angle_r	subtalar_angle_r	mtp_angle_r	hip_flexion_l	hip_adduction_l	hip_rotation_l	knee_angle_l	knee_angle_l_beta	ankle_angle_l	subtalar_angle_l	mtp_angle_l	L5_S1_Flex_Ext	L5_S1_Lat_Bending	L5_S1_axial_rotation	L4_L5_Flex_Ext	L4_L5_Lat_Bending	L4_L5_axial_rotation	L3_L4_Flex_Ext	L3_L4_Lat_Bending	L3_L4_axial_rotation	L2_L3_Flex_Ext	L2_L3_Lat_Bending	L2_L3_axial_rotation	L1_L2_Flex_Ext	L1_L2_Lat_Bending	L1_L2_axial_rotation	L1_T12_Flex_Ext	L1_T12_Lat_Bending	L1_T12_axial_rotation	Abs_r3	Abs_r2	Abs_r1	Abs_t1	Abs_t2	neck_flexion	neck_bending	neck_rotation	arm_flex_r	arm_add_r	arm_rot_r	elbow_flex_r	pro_sup_r	wrist_flex_r	wrist_dev_r	arm_flex_l	arm_add_l	arm_rot_l	elbow_flex_l	pro_sup_l	wrist_flex_l	wrist_dev_l
2.285714	4.139274	-2.017634	78.730068	-0.092325	0.775280	0.642008	-0.496290	1.921032	8.780589	2.454155	0.042833	31.411454	6.219457	0.000000	-2.982782	-3.100537	-12.156757	3.353569	0.058531	34.557377	5.323583	0.000000	0.086389	1.074313	-1.265280	0.160432	1.428836	-1.344360	0.141928	2.612084	-1.344360	0.098734	2.612084	-1.107120	0.080220	2.190739	-1.028040	0.049362	1.664111	-0.948960	0.617065	12.152843	-7.037110	0.000000	0.000000	14.583542	0.308280	25.024531	-15.407740	-26.210708	10.868080	44.460258	85.143216	-14.308273	-6.533335	24.018282	-9.831292	0.807484	81.775978	88.942827	-7.561050	-2.096497
2.309524	4.306147	-2.116495	79.192862	-0.092788	0.775356	0.641337	-0.382479	2.140987	8.220410	2.577612	0.044988	31.493482	6.188465	0.000000	-2.866411	-3.321082	-11.956214	3.343910	0.058362	34.585588	5.616274	0.000000	0.097375	1.099902	-1.335849	0.180835	1.462870	-1.419339	0.159977	2.674302	-1.419339	0.111290	2.674302	-1.168868	0.090422	2.242921	-1.085377	0.055640	1.703749	-1.001887	0.695540	12.442314	-7.429590	0.000000	0.000000	14.850998	0.059051	24.875127	-14.875927	-26.103624	10.767284	44.868275	85.619178	-14.034661	-5.926295	23.820129	-9.978492	1.471797	81.407573	88.961259	-7.356453	-1.053286
2.333333	4.484061	-2.215264	79.755937	-0.093365	0.775422	0.640623	-0.240348	2.364545	7.330893	2.782665	0.048567	31.639320	6.394196	0.000000	-2.758571	-3.550232	-11.509485	3.286693	0.057364	34.535342	5.718060	0.000000	0.108385	1.125700	-1.421900	0.201282	1.497181	-1.510769	0.178066	2.737026	-1.510769	0.123873	2.737026	-1.244163	0.100646	2.295527	-1.155294	0.061931	1.743709	-1.066425	0.774185	12.734140	-7.908182	0.000000	0.000000	15.134897	-0.127932	24.732019	-14.277259	-25.993706	10.690372	45.280170	86.077139	-13.763701	-5.552091	23.515070	-10.109208	2.199621	80.929830	88.993408	-7.261142	-0.527044
2.357143	4.677422	-2.301746	80.376382	-0.094023	0.775480	0.639907	-0.064651	2.588981	6.182284	3.107359	0.054234	31.860801	6.791668	0.000000	-2.673826	-3.791453	-10.993391	3.192057	0.055712	34.463495	5.838084	0.000000	0.117753	1.152059	-1.513126	0.218680	1.532239	-1.607697	0.193457	2.801117	-1.607697	0.134580	2.801117	-1.323986	0.109346	2.349279	-1.229415	0.067284	1.784540	-1.134845	0.841099	13.032324	-8.415555	0.000000	0.000000	15.428766	-0.276780	24.534442	-13.654152	-25.921602	10.692978	45.735444	86.500013	-13.594074	-5.316336	23.175901	-10.254054	3.156563	80.261132	89.032627	-7.528395	-0.777634
2.380952	4.887504	-2.373600	81.007997	-0.094727	0.775531	0.639205	0.142407	2.816628	4.822540	3.550983	0.061976	32.141975	7.370681	0.000000	-2.628505	-4.038929	-10.278571	3.045199	0.053149	34.328422	5.744554	0.000000	0.125482	1.179888	-1.601329	0.233033	1.569251	-1.701412	0.206154	2.868780	-1.701412	0.143413	2.868780	-1.401163	0.116523	2.406028	-1.301080	0.071700	1.827647	-1.200997	0.896305	13.347132	-8.906110	0.000000	0.000000	15.724697	-0.419799	24.284568	-13.061710	-25.880147	10.668394	46.242947	86.901053	-13.370766	-5.137045	22.811842	-10.413342	4.319626	79.438569	89.075230	-8.021780	-1.554056
2.404762	5.110497	-2.429426	81.610319	-0.095430	0.775571	0.638557	0.382424	3.046385	3.369506	4.112637	0.071779	32.466295	8.055185	0.000000	-2.626492	-4.285978	-9.340540	2.850210	0.049746	34.104385	5.333699	0.000000	0.130905	1.208589	-1.679338	0.243104	1.607424	-1.784297	0.215064	2.938564	-1.784297	0.149612	2.938564	-1.469421	0.121559	2.464556	-1.364462	0.074799	1.872105	-1.259504	0.935043	13.671805	-9.339975	0.000000	0.000000	16.020762	-0.555098	23.971251	-12.523527	-25.874792	10.627311	46.790616	87.289597	-13.110269	-4.938020	22.435518	-10.598326	5.667312	78.508136	89.116611	-8.587306	-2.559377
2.428571	5.335869	-2.481017	82.163607	-0.096102	0.775588	0.638002	0.664955	3.272223	1.858816	4.778846	0.083407	32.813566	8.824891	0.000000	-2.649737	-4.524170	-8.193455	2.621934	0.045761	33.785448	4.581282	0.000000	0.135002	1.236845	-1.745334	0.250712	1.645004	-1.854417	0.221795	3.007265	-1.854417	0.154294	3.007265	-1.527167	0.125363	2.522175	-1.418084	0.077140	1.915873	-1.309000	0.964307	13.991440	-9.707024	0.000000	0.000000	16.329813	-0.678058	23.614416	-12.039499	-25.900623	10.597626	47.340831	87.653276	-12.836003	-4.683734	22.051763	-10.794248	7.101645	77.519901	89.153372	-8.990382	-3.423165
2.452381	5.540761	-2.533486	82.655935	-0.096715	0.775564	0.637607	1.010170	3.471490	0.269198	5.574985	0.097302	33.209256	9.738065	0.000000	-2.679388	-4.735841	-6.951449	2.380448	0.041547	33.396644	3.626777	0.000000	0.138284	1.261016	-1.793135	0.256807	1.677152	-1.905206	0.227187	3.066035	-1.905206	0.158045	3.066035	-1.568993	0.128410	2.571465	-1.456922	0.079015	1.953314	-1.344851	0.987748	14.264870	-9.972880	0.000000	0.000000	16.640024	-0.758879	23.181009	-11.643543	-25.924857	10.532063	47.909289	87.971905	-12.595660	-4.293866	21.708518	-10.991860	8.632949	76.472328	89.179477	-9.290214	-4.018727
2.476190	5.710734	-2.596326	83.060261	-0.097255	0.775481	0.637422	1.423810	3.631713	-1.277790	6.481278	0.113120	33.625734	10.692628	0.000000	-2.698731	-4.905030	-5.630976	2.136784	0.037294	32.943310	2.447150	0.000000	0.141517	1.279417	-1.813019	0.262811	1.701625	-1.926333	0.232498	3.110775	-1.926333	0.161740	3.110775	-1.586391	0.131413	2.608987	-1.473078	0.080863	1.981817	-1.359764	1.010840	14.473023	-10.083467	0.000000	0.000000	16.959559	-0.804622	22.636424	-11.381351	-25.910641	10.302083	48.543159	88.199416	-12.346675	-3.734589	21.453603	-11.128296	10.190044	75.359396	89.193083	-9.474644	-4.159119
2.500000	5.834640	-2.667347	83.365792	-0.097703	0.775346	0.637527	1.894100	3.746132	-2.732497	7.458569	0.130177	34.039784	11.655483	0.000000	-2.698076	-5.021650	-4.299524	1.904732	0.033244	32.444103	1.100586	0.000000	0.143796	1.289998	-1.800137	0.267043	1.715697	-1.912646	0.236242	3.136500	-1.912646	0.164344	3.136500	-1.575120	0.133529	2.630563	-1.462612	0.082165	1.998206	-1.350103	1.027118	14.592711	-10.011824	0.000000	0.000000	17.274978	-0.792580	21.979886	-11.216797	-25.847562	9.941028	49.235740	88.330308	-12.145945	-3.072529	21.348124	-11.197321	11.764777	74.162531	89.190855	-9.500365	-3.704015
2.523810	5.882129	-2.750618	83.555303	-0.098008	0.775137	0.637940	2.399278	3.793120	-3.589333	8.432172	0.147169	34.327539	11.999971	0.000000	-2.659289	-5.067421	-3.273386	1.712382	0.029887	31.984722	-0.019896	0.000000	0.146265	1.288815	-1.753843	0.271628	1.714124	-1.863458	0.240298	3.133624	-1.863458	0.167166	3.133624	-1.534613	0.135822	2.628151	-1.424998	0.083576	1.996374	-1.315382	1.044755	14.579331	-9.754350	0.000000	0.000000	17.591260	-0.721469	21.187447	-11.105772	-25.686171	9.369118	49.995527	88.462539	-11.891992	-2.281345	21.350566	-11.174986	13.201416	72.935031	89.178685	-9.176463	-2.551321
2.547619	5.852485	-2.853664	83.601510	-0.098178	0.774878	0.638706	2.962815	3.770681	-4.116368	9.426566	0.164525	34.553268	12.114222	0.000000	-2.579969	-5.032834	-2.421519	1.541056	0.026897	31.521239	-1.102947	0.000000	0.149026	1.277374	-1.673032	0.276757	1.698908	-1.777597	0.244835	3.105808	-1.777597	0.170322	3.105808	-1.463903	0.138386	2.604822	-1.359339	0.085154	1.978653	-1.254774	1.064479	14.449915	-9.304905	0.000000	0.000000	17.895712	-0.613895	20.320828	-10.941286	-25.467467	8.750098	50.775575	88.474805	-11.749994	-1.473844	21.443583	-11.085195	14.562412	71.667078	89.156816	-8.789992	-1.053754
2.571429	5.751981	-2.970604	83.529617	-0.098260	0.774583	0.639811	3.565254	3.686843	-4.297808	10.412093	0.181725	34.706832	11.958148	0.000000	-2.461290	-4.924356	-1.733974	1.395447	0.024355	31.086782	-2.103155	0.000000	0.151193	1.257005	-1.571383	0.280781	1.671817	-1.669594	0.248395	3.056282	-1.669594	0.172799	3.056282	-1.374960	0.140398	2.563285	-1.276748	0.086392	1.947101	-1.178537	1.079958	14.219493	-8.739559	0.000000	0.000000	18.191251	-0.495903	19.395238	-10.651076	-25.213321	8.128108	51.580069	88.389689	-11.685255	-0.586223	21.588768	-10.940547	15.763450	70.419977	89.128408	-8.356479	0.762029
2.595238	5.605156	-3.105022	83.350564	-0.098300	0.774293	0.641251	4.197235	3.569338	-4.104812	11.355744	0.198195	34.766045	11.492783	0.000000	-2.301866	-4.766594	-1.211080	1.270664	0.022177	30.699113	-2.980956	0.000000	0.152683	1.232290	-1.461934	0.283547	1.638946	-1.553304	0.250842	2.996190	-1.553304	0.174501	2.996190	-1.279192	0.141781	2.512886	-1.187821	0.087243	1.908817	-1.096450	1.090597	13.939911	-8.130836	0.000000	0.000000	18.457662	-0.399546	18.513114	-10.138013	-24.963107	7.645447	52.324859	88.188030	-11.699314	0.267390	21.756448	-10.764194	16.781666	69.207119	89.091073	-8.050946	2.714447
2.619048	5.378977	-3.247874	83.034942	-0.098253	0.774025	0.642970	4.837581	3.382934	-3.457096	12.214628	0.213185	34.726422	10.673959	0.000000	-2.109000	-4.522840	-0.920101	1.182245	0.020634	30.369665	-3.688931	0.000000	0.154177	1.198654	-1.336572	0.286322	1.594209	-1.420108	0.253297	2.914407	-1.420108	0.176209	2.914407	-1.169500	0.143168	2.444295	-1.085965	0.088097	1.856715	-1.002429	1.101269	13.559410	-7.433612	0.000000	0.000000	18.686426	-0.271229	17.632507	-9.419816	-24.663882	7.252272	52.971484	87.857251	-11.829845	1.057999	21.906848	-10.552962	17.608249	68.018862	89.048335	-7.928031	4.543255
2.642857	5.121630	-3.419852	82.686454	-0.098200	0.773797	0.644928	5.535549	3.169805	-3.024845	13.088601	0.228439	34.734227	10.230771	0.000000	-1.873614	-4.243878	-0.581764	1.084886	0.018935	30.022555	-4.473371	0.000000	0.156480	1.161753	-1.232925	0.290600	1.545131	-1.309983	0.257082	2.824686	-1.309983	0.178841	2.824686	-1.078809	0.145308	2.369047	-1.001751	0.089413	1.799555	-0.924694	1.117724	13.141982	-6.857158	0.000000	0.000000	18.877992	-0.136853	16.866549	-8.343938	-24.375457	7.235268	53.392114	87.465203	-12.082288	1.700932	21.909222	-10.361357	18.071081	67.032281	89.005618	-7.787709	6.544252
2.666667	4.833207	-3.612915	82.359979	-0.098168	0.773613	0.646974	6.231640	2.930976	-2.479925	13.882960	0.242303	34.694264	9.670145	0.000000	-1.597477	-3.936421	-0.334046	1.004505	0.017532	29.688403	-5.096926	0.000000	0.160276	1.120669	-1.153808	0.297648	1.490490	-1.225921	0.263317	2.724795	-1.225921	0.183179	2.724795	-1.009582	0.148832	2.285268	-0.937469	0.091581	1.735916	-0.865356	1.144833	12.677233	-6.417135	0.000000	0.000000	19.053761	0.027917	16.182910	-6.995485	-24.057851	7.461947	53.609591	87.057371	-12.422630	2.255139	21.741852	-10.195388	18.276124	66.191605	88.964819	-7.846370	8.284959
2.690476	4.529333	-3.820845	82.089442	-0.098144	0.773478	0.649005	6.907921	2.682002	-1.915913	14.589082	0.254628	34.620694	9.073576	0.000000	-1.290934	-3.619832	-0.154164	0.939075	0.016390	29.366534	-5.568472	0.000000	0.165737	1.075846	-1.105456	0.307789	1.430875	-1.174547	0.272289	2.615812	-1.174547	0.189420	2.615812	-0.967274	0.153903	2.193865	-0.898183	0.094702	1.666486	-0.829092	1.183840	12.170186	-6.148214	0.000000	0.000000	19.191629	0.277219	15.585609	-5.418758	-23.700750	7.919940	53.629229	86.632341	-12.885658	2.683217	21.374630	-10.085499	18.253980	65.498978	88.931829	-8.153045	9.549958
